<svg fill="none" height="20" viewBox="0 0 20 20" width="20" xmlns="http://www.w3.org/2000/svg"><path d="m4.01001 0c-1.93 0-3.5 1.57-3.5 3.5 0 1.58 1.06 2.903 2.5 3.337v7.16c-.001.179.027 1.781 1.174 2.931.708.712 1.656 1.072 2.816 1.072v2l3.99999-3-3.99999-3v2c-1.823 0-1.984-1.534-1.99-2v-7.163c1.44-.434 2.5-1.757 2.5-3.337 0-1.93-1.571-3.5-3.5-3.5zm0 5c-.827 0-1.5-.673-1.5-1.5s.673-1.5 1.5-1.5 1.5.673 1.5 1.5-.673 1.5-1.5 1.5zm12.99999 8.163v-7.166c-.005-1.606-1.077-3.997-4.01-3.997v-2l-3.99999 3 3.99999 3v-2c1.829 0 2.001 1.539 2.01 2v7.163c-1.44.434-2.5 1.757-2.5 3.337 0 1.93 1.57 3.5 3.5 3.5s3.5-1.57 3.5-3.5c0-1.58-1.06-2.903-2.5-3.337zm-1 4.837c-.827 0-1.5-.673-1.5-1.5s.673-1.5 1.5-1.5 1.5.673 1.5 1.5-.673 1.5-1.5 1.5z" fill="currentColor"/></svg>