<svg fill="none" height="80" viewBox="0 0 98 80" width="98" xmlns="http://www.w3.org/2000/svg"><path d="m4.66667 32.9794h14.00003c1.2376 0 2.4246.4433 3.2998 1.2324s1.3668 1.8593 1.3668 2.9753v37.8687c0 1.1159-.4916 2.1862-1.3668 2.9752-.8752.7891-2.0622 1.2324-3.2998 1.2324h-14.00003c-1.23768 0-2.42467-.4433-3.29984-1.2324-.875165-.789-1.36683-1.8593-1.36683-2.9752v-37.8687c0-1.116.491665-2.1862 1.36683-2.9753.87517-.7891 2.06216-1.2324 3.29984-1.2324zm0 4.2077v37.8687h14.00003v-37.8687zm73.34133 33.7662 14.0047-21.0381c.84-1.2623 1.3206-2.735 1.3206-4.3129v-4.2076c0-2.2319-.9833-4.3723-2.7336-5.9505-1.7504-1.5781-4.1244-2.4648-6.5997-2.4648h-26.18l6.7993-22.8895.0234-.0757c.2125-.71321.2132-1.46426.0018-2.17773-.2113-.71347-.6272-1.36423-1.2058-1.88687l-28.042 25.2837c-.8677.7812-1.5556 1.7094-2.0241 2.7312s-.7084 2.1169-.7059 3.2226v29.4534c0 2.2319.9833 4.3723 2.7336 5.9505 1.7504 1.5782 4.1243 2.4648 6.5997 2.4648h28c3.4067 0 6.384-1.641 8.008-4.1025zm19.992-25.351c0 2.4994-.8027 4.8262-2.1933 6.7828l-13.5614 20.3775c-1.2119 1.9703-2.9866 3.6122-5.1399 4.7554-2.1532 1.1431-4.6066 1.7458-7.1054 1.7454h-28c-3.713 0-7.274-1.3299-9.8995-3.6971-2.6255-2.3673-4.1005-5.578-4.1005-8.9258v-29.4534c0-3.4839 1.5633-6.6355 4.0927-8.9202l31.346-28.2669 3.2993 2.9748c1.1806 1.06452 2.0229 2.39511 2.4391 3.85305.4161 1.45794.3909 2.98984-.0731 4.43595l-5.2033 17.508h20.0993c3.713 0 7.274 1.3299 9.8995 3.6972 2.6255 2.3672 4.1005 5.5779 4.1005 8.9257z" fill="currentColor"/></svg>