<svg fill="none" height="95" viewBox="0 0 105 95" width="105" xmlns="http://www.w3.org/2000/svg"><path d="m98.1052 62.4407-10.2288-6.4402c1.7179-5.5927 1.7082-11.4911-.0282-17.0793l10.2626-6.3604-8.1931-12.551-11.4129 4.623c-4.613-4.1137-10.389-7.0551-16.7246-8.5171l-1.0883-11.04835h-16.3862l-1.0883 11.04835c-6.3343 1.464-12.1084 4.4072-16.7189 8.5221l-11.4186-4.623-8.18745 12.551 10.26255 6.3604c-1.7372 5.5862-1.7489 11.4828-.0338 17.0743l-10.22875 6.4402 8.18745 12.4912 11.4186-4.628c4.6112 4.1131 10.3852 7.0545 16.7189 8.5171l1.0883 11.0483h16.3862l1.0883-11.0483c6.3336-1.4628 12.1076-4.4042 16.719-8.5171l11.4185 4.628 8.1931-12.4862zm-34.3007-62.4406986c.7258-.00068024 1.424.2464946 1.9492.6900756.5251.443583.8368 1.049393.8702 1.691333l1.0037 10.15969c4.1683 1.4064 8.057 3.3916 11.52 5.8811l10.4317-4.3085c.6443-.2935 1.3915-.3561 2.0866-.1749.6951.1813 1.2846.5925 1.6463 1.1484l11.3058 17.3239c.363.5553.471 1.2131.301 1.8369s-.605 1.1656-1.215 1.513l-9.4388 5.8512c.7217 3.984.6992 7.953.0056 11.7772l9.4332 5.8412c.611.3475 1.047.8902 1.217 1.5152.171.625.062 1.284-.303 1.8397l-11.3058 17.259c-.3617.5559-.9512.9671-1.6463 1.1484-.6951.1812-1.4423.1186-2.0866-.1749l-10.4317-4.3085c-3.3945 2.4463-7.2627 4.4433-11.52 5.8861l-1.0037 10.1597c-.0348.641-.3471 1.2456-.8721 1.6881-.525.4426-1.2224.689-1.9473.6883h-22.6114c-.7249.0007-1.4222-.2457-1.9473-.6883-.525-.4425-.8373-1.0471-.8721-1.6881l-1.0037-10.1597c-4.1686-1.4082-8.0572-3.3951-11.52-5.8861l-10.4317 4.3085c-.6442.2954-1.3923.3597-2.0886.1793s-1.2872-.5915-1.6499-1.1478l-11.300122-17.269c-.3632607-.5553-.4710273-1.2131-.3009277-1.8369.1700997-.6238.6049977-1.1656 1.2144097-1.513l9.43364-5.8462c-.7064-3.9008-.7064-7.8764 0-11.7772l-9.428-5.8462c-.607919-.3473-1.041779-.8882-1.2118113-1.5108-.170032-.6226-.063223-1.2793.2983273-1.8341l11.288784-17.3289c.3618-.5571.9524-.9693 1.6487-1.1506.6964-.1814 1.445-.1179 2.0898.1771l10.4318 4.3085c3.4629-2.4895 7.3516-4.4747 11.52-5.8811l1.0037-10.15969c.0333-.64194.3451-1.24775.8702-1.691333.5252-.443581 1.2233-.69075584 1.9491-.6900756h22.6115zm-11.3057 30.0296986c5.2342 0 10.2541 1.8409 13.9552 5.1179 3.7012 3.2769 5.7805 7.7214 5.7805 12.3557s-2.0793 9.0788-5.7805 12.3557c-3.7011 3.2769-8.721 5.1179-13.9552 5.1179s-10.2541-1.841-13.9552-5.1179c-3.7012-3.2769-5.7805-7.7214-5.7805-12.3557s2.0793-9.0788 5.7805-12.3557c3.7011-3.277 8.721-5.1179 13.9552-5.1179zm0 4.9924c-3.7387 0-7.3243 1.315-9.968 3.6557s-4.1289 5.5153-4.1289 8.8255 1.4852 6.4848 4.1289 8.8255 6.2293 3.6557 9.968 3.6557 7.3243-1.315 9.968-3.6557 4.1289-5.5153 4.1289-8.8255-1.4852-6.4848-4.1289-8.8255-6.2293-3.6557-9.968-3.6557z" fill="currentColor"/></svg>