<svg fill="none" height="61" viewBox="0 0 103 61" width="103" xmlns="http://www.w3.org/2000/svg"><path d="m22.0714 39.098c2.8268-.0005 5.5669.864 7.7567 2.4473 2.1897 1.5833 3.6946 3.7881 4.26 6.2412h34.5786v-43.44228h-53.9524c-2.6017 0-5.09675.91539-6.9364 2.54479-1.83964 1.6294-2.87314 3.83939-2.87314 6.14369v34.7538h5.15004c.5653-2.4531 2.0702-4.6579 4.26-6.2412s4.9299-2.4478 7.7566-2.4473zm0 21.7211c-2.8267.0005-5.5668-.864-7.7566-2.4473-2.1898-1.5832-3.6947-3.788-4.26-6.2411h-10.0548v-39.098c0-3.45651 1.55025-6.77142 4.30971-9.21552 2.75947-2.4441 6.50209-3.81718 10.40459-3.81718h53.9524c1.3008 0 2.5483.457695 3.4682 1.27239.9198.8147 1.4365 1.91967 1.4365 3.07183v8.68848h14.7143l14.7143 17.2943v21.8037h-10.0548c-.5628 2.4551-2.0667 4.6624-4.2567 6.2478s-4.9315 2.4515-7.7599 2.4515c-2.8285 0-5.57-.8661-7.76-2.4515s-3.6938-3.7927-4.2567-6.2478h-34.8238c-.5654 2.4531-2.0703 4.6579-4.26 6.2411-2.1898 1.5833-4.9299 2.4478-7.7567 2.4473zm0-17.3769c-1.9512 0-3.8225.6866-5.2023 1.9086-1.3797 1.2221-2.1548 2.8795-2.1548 4.6078 0 1.7282.7751 3.3857 2.1548 4.6077 1.3798 1.2221 3.2511 1.9086 5.2023 1.9086 1.9513 0 3.8226-.6865 5.2023-1.9086 1.3797-1.222 2.1549-2.8795 2.1549-4.6077 0-1.7283-.7752-3.3857-2.1549-4.6078-1.3797-1.222-3.251-1.9086-5.2023-1.9086zm58.8572-4.3442c2.8267-.0005 5.5669.864 7.7566 2.4473 2.1898 1.5833 3.6947 3.7881 4.26 6.2412h5.15v-16.0042l-1.1673-1.3727h-23.3565v10.8605c2.1209-1.4127 4.7035-2.1752 7.3572-2.1721zm0 4.3442c-1.9513 0-3.8226.6866-5.2023 1.9086-1.3797 1.2221-2.1549 2.8795-2.1549 4.6078 0 1.7282.7752 3.3857 2.1549 4.6077 1.3797 1.2221 3.251 1.9086 5.2023 1.9086 1.9512 0 3.8225-.6865 5.2023-1.9086 1.3797-1.222 2.1548-2.8795 2.1548-4.6077 0-1.7283-.7751-3.3857-2.1548-4.6078-1.3798-1.222-3.2511-1.9086-5.2023-1.9086zm-7.3572-26.0653v8.6884h19.6632l-7.4013-8.6884z" fill="currentColor"/></svg>