<?xml version="1.0" encoding="utf-8"?><svg xmlns="http://www.w3.org/2000/svg" xmlns:xlink="http://www.w3.org/1999/xlink"><symbol fill="none" viewBox="0 0 25 15" id="catalog" xmlns="http://www.w3.org/2000/svg"><path stroke="currentColor" stroke-width="3" d="M0 7.5h23M0 13.5h21M0 1.5h25"/></symbol><symbol fill="none" viewBox="0 0 106 96" id="feature1" xmlns="http://www.w3.org/2000/svg"><path d="M63.898 38.691L52.994 14.268 42.08 38.72l-27.805 2.313 21.08 17.429-6.272 25.86L53.03 70.64l23.918 13.666-6.278-25.883L91.73 41.016l-27.833-2.32zM85.77 95.837L53.03 77.132 20.26 95.853l8.594-35.392L0 36.618l38.051-3.16L52.994 0 67.92 33.43 106 36.601 77.17 60.428z" fill="currentColor"/></symbol><symbol fill="none" viewBox="0 0 105 95" id="feature2" xmlns="http://www.w3.org/2000/svg"><path d="M98.105 62.44L87.876 56a28.796 28.796 0 00-.028-17.079l10.263-6.36-8.193-12.551-11.413 4.623c-4.613-4.114-10.39-7.055-16.725-8.517L60.692 5.067H44.306l-1.089 11.049C36.883 17.58 31.11 20.523 26.5 24.638l-11.42-4.623-8.187 12.55 10.263 6.361A28.796 28.796 0 0017.121 56L6.892 62.44l8.188 12.492 11.419-4.628c4.61 4.113 10.385 7.054 16.718 8.517l1.089 11.048h16.386l1.088-11.048c6.334-1.463 12.108-4.404 16.72-8.517l11.418 4.628 8.193-12.486zM63.805 0c.725 0 1.423.246 1.949.69.525.444.836 1.05.87 1.691l1.004 10.16c4.168 1.407 8.057 3.392 11.52 5.881l10.431-4.308a3.152 3.152 0 012.087-.175c.695.181 1.284.592 1.646 1.148l11.306 17.324c.363.555.471 1.213.301 1.837s-.605 1.166-1.215 1.513l-9.439 5.851c.722 3.984.7 7.953.006 11.777l9.433 5.842c.611.347 1.047.89 1.217 1.515a2.246 2.246 0 01-.303 1.84L93.312 79.845c-.362.555-.951.967-1.646 1.148a3.152 3.152 0 01-2.087-.175L79.148 76.51c-3.395 2.446-7.263 4.443-11.52 5.886l-1.004 10.16c-.035.64-.347 1.245-.872 1.687a3.025 3.025 0 01-1.948.689h-22.61a3.025 3.025 0 01-1.948-.689c-.525-.442-.838-1.047-.872-1.688l-1.004-10.16c-4.169-1.408-8.057-3.394-11.52-5.885l-10.432 4.308c-.644.295-1.392.36-2.088.18s-1.288-.592-1.65-1.148L.38 62.58a2.25 2.25 0 01-.301-1.836c.17-.624.605-1.166 1.214-1.513l9.434-5.847a32.99 32.99 0 010-11.777l-9.428-5.846c-.608-.347-1.042-.888-1.212-1.51a2.25 2.25 0 01.298-1.835l11.29-17.329c.36-.557.951-.97 1.648-1.15a3.15 3.15 0 012.09.177l10.431 4.308c3.463-2.49 7.352-4.474 11.52-5.88l1.004-10.16c.033-.643.345-1.248.87-1.692a3.024 3.024 0 011.95-.69h22.61zM52.498 30.03c5.234 0 10.254 1.84 13.955 5.118 3.701 3.277 5.78 7.721 5.78 12.355s-2.079 9.08-5.78 12.356c-3.701 3.277-8.721 5.118-13.955 5.118s-10.254-1.841-13.955-5.118c-3.702-3.277-5.78-7.721-5.78-12.356s2.078-9.078 5.78-12.355c3.7-3.277 8.72-5.118 13.955-5.118zm0 4.992c-3.739 0-7.325 1.315-9.968 3.656s-4.13 5.515-4.13 8.825 1.486 6.485 4.13 8.826 6.23 3.656 9.968 3.656 7.324-1.315 9.968-3.656 4.129-5.515 4.129-8.826-1.485-6.484-4.13-8.825-6.228-3.656-9.967-3.656z" fill="currentColor"/></symbol><symbol fill="none" viewBox="0 0 98 80" id="feature3" xmlns="http://www.w3.org/2000/svg"><path d="M4.667 32.98h14c1.237 0 2.424.443 3.3 1.232s1.366 1.86 1.366 2.975v37.869c0 1.116-.491 2.186-1.366 2.975-.876.79-2.063 1.232-3.3 1.232h-14c-1.238 0-2.425-.443-3.3-1.232C.492 77.242 0 76.171 0 75.056V37.187c0-1.116.492-2.186 1.367-2.975.875-.79 2.062-1.233 3.3-1.233zm0 4.207v37.869h14V37.187zm73.341 33.766l14.005-21.038a7.74 7.74 0 001.32-4.313v-4.207c0-2.232-.983-4.373-2.733-5.95-1.75-1.579-4.125-2.466-6.6-2.466H57.82l6.8-22.89.023-.075a3.809 3.809 0 00.001-2.178A4.131 4.131 0 0063.44 5.95L35.397 31.233c-.868.782-1.556 1.71-2.024 2.732s-.709 2.116-.706 3.222v29.454c0 2.231.983 4.372 2.733 5.95 1.75 1.578 4.125 2.465 6.6 2.465h28c3.407 0 6.384-1.641 8.008-4.103zM98 45.603c0 2.499-.803 4.825-2.193 6.782L82.245 72.763c-1.212 1.97-2.986 3.612-5.14 4.755A15.182 15.182 0 0170 79.263H42c-3.713 0-7.274-1.33-9.9-3.697C29.475 73.2 28 69.988 28 66.64V37.188c0-3.484 1.563-6.635 4.093-8.92L63.439 0l3.299 2.975c1.18 1.064 2.023 2.395 2.44 3.853a7.62 7.62 0 01-.074 4.436l-5.203 17.508H84c3.713 0 7.274 1.33 9.9 3.697 2.625 2.367 4.1 5.578 4.1 8.926z" fill="currentColor"/></symbol><symbol fill="none" viewBox="0 0 103 61" id="feature4" xmlns="http://www.w3.org/2000/svg"><path d="M22.071 39.098c2.827 0 5.567.864 7.757 2.447 2.19 1.584 3.695 3.788 4.26 6.241h34.579V4.344H14.714c-2.601 0-5.096.916-6.936 2.545-1.84 1.63-2.873 3.84-2.873 6.144v34.754h5.15c.565-2.454 2.07-4.658 4.26-6.242s4.93-2.448 7.756-2.447zm0 21.721c-2.826 0-5.566-.864-7.756-2.447-2.19-1.583-3.695-3.788-4.26-6.241H0V13.033C0 9.576 1.55 6.26 4.31 3.817 7.07 1.373 10.812 0 14.714 0h53.953c1.3 0 2.548.458 3.468 1.272.92.815 1.436 1.92 1.436 3.072v8.689h14.715L103 30.327v21.804H92.945c-.563 2.455-2.067 4.662-4.257 6.247s-4.931 2.452-7.76 2.452c-2.828 0-5.57-.866-7.76-2.451s-3.693-3.793-4.256-6.248H34.088c-.565 2.453-2.07 4.658-4.26 6.24-2.19 1.584-4.93 2.449-7.757 2.448zm0-17.377c-1.95 0-3.822.687-5.202 1.909s-2.155 2.88-2.155 4.608c0 1.728.775 3.385 2.155 4.607 1.38 1.222 3.251 1.909 5.202 1.909 1.952 0 3.823-.687 5.203-1.909 1.38-1.222 2.155-2.88 2.155-4.607 0-1.729-.776-3.386-2.155-4.608-1.38-1.222-3.251-1.909-5.203-1.909zm58.858-4.344c2.826 0 5.567.864 7.756 2.447 2.19 1.584 3.695 3.788 4.26 6.241h5.15V31.782l-1.167-1.372H73.57v10.86c2.121-1.413 4.704-2.175 7.358-2.172zm0 4.344c-1.952 0-3.823.687-5.203 1.909-1.38 1.222-2.155 2.88-2.155 4.608 0 1.728.776 3.385 2.155 4.607 1.38 1.222 3.251 1.909 5.203 1.909 1.95 0 3.822-.687 5.202-1.909s2.155-2.88 2.155-4.607c0-1.729-.775-3.386-2.155-4.608-1.38-1.222-3.251-1.909-5.202-1.909zM73.57 17.377v8.688h19.664l-7.402-8.688z" fill="currentColor"/></symbol></svg>