<svg fill="none" height="74" width="74" xmlns="http://www.w3.org/2000/svg"><circle cx="37" cy="37" fill="#c4c4c4" r="37"/><path d="M49.156 42.848l-5.689-3.698 2.145-3.932a6.27 6.27 0 00.763-2.993V26a8.75 8.75 0 00-17.5 0v6.225c0 1.046.263 2.075.763 2.993l2.145 3.932-5.69 3.698a6.229 6.229 0 00-2.843 5.24v6.662H52v-6.662a6.228 6.228 0 00-2.844-5.24zm.344 9.402H25.75v-4.162a3.737 3.737 0 011.706-3.144l7.63-4.96-3.253-5.963a3.762 3.762 0 01-.458-1.796V26a6.25 6.25 0 0112.5 0v6.225c0 .627-.158 1.245-.458 1.796l-3.253 5.964 7.63 4.96a3.737 3.737 0 011.706 3.143z" fill="#fff"/></svg>