<svg fill="none" height="12" width="12" xmlns="http://www.w3.org/2000/svg"><path d="M9.762 4.875c-.102 0-.356-.004-.762-.012v-.75c0-.203-.072-.379-.217-.527s-.322-.223-.533-.223H.75a.715.715 0 00-.533.223.73.73 0 00-.217.527V9.75c0 .625.219 1.156.656 1.594A2.17 2.17 0 002.25 12h4.512c.617 0 1.144-.219 1.582-.656A2.17 2.17 0 009 9.75v-.387c.164.008.322.012.475.012h.287c.617 0 1.144-.219 1.582-.656.437-.438.656-.965.656-1.582 0-.696-.266-1.27-.797-1.723a2.161 2.161 0 00-1.441-.539zM8.25 9.75a1.488 1.488 0 01-1.488 1.5H2.25a1.44 1.44 0 01-1.06-.44 1.445 1.445 0 01-.44-1.06V4.113h7.5zm1.512-1.113c-.078 0-.332-.004-.762-.012v-3h.762c.422 0 .777.143 1.066.428.29.285.434.642.434 1.072s-.145.79-.434 1.078a1.45 1.45 0 01-1.066.434zM6.75 2.625c.102 0 .19-.037.264-.111s.111-.162.111-.264V.375a.36.36 0 00-.111-.264C6.939.037 6.852 0 6.75 0s-.19.037-.264.111a.36.36 0 00-.111.264V2.25c0 .102.037.19.111.264s.162.111.264.111zm-4.5 0c.102 0 .19-.037.264-.111s.111-.162.111-.264V.375a.36.36 0 00-.111-.264C2.439.037 2.352 0 2.25 0s-.19.037-.264.111a.36.36 0 00-.111.264V2.25c0 .102.037.19.111.264s.162.111.264.111zm2.25 0c.102 0 .19-.037.264-.111s.111-.162.111-.264V.375a.36.36 0 00-.111-.264C4.689.037 4.602 0 4.5 0s-.19.037-.264.111a.36.36 0 00-.111.264V2.25c0 .102.037.19.111.264s.162.111.264.111z" fill="#fff"/></svg>