<svg width="36" height="37" fill="none" xmlns="http://www.w3.org/2000/svg"><path d="M33.636 24.141l-3.507-2.387c.59-2.073.586-4.26-.01-6.332l3.519-2.357-2.81-4.653-3.912 1.714a12.679 12.679 0 00-5.734-3.158l-.373-4.095H15.19l-.373 4.095a12.676 12.676 0 00-5.732 3.16L5.17 8.413l-2.807 4.652 3.519 2.358a11.503 11.503 0 00-.012 6.33L2.363 24.14l2.807 4.63 3.915-1.715a12.676 12.676 0 005.732 3.157l.373 4.096h5.619l.373-4.095a12.679 12.679 0 005.732-3.158l3.915 1.716 2.809-4.629-.002-.002zM21.876.994a.99.99 0 01.668.256.91.91 0 01.299.627l.344 3.766a14.573 14.573 0 013.95 2.18l3.576-1.597c.22-.109.477-.132.715-.065.239.068.44.22.565.426l3.876 6.422a.89.89 0 01.103.681.927.927 0 01-.416.56l-3.236 2.17c.247 1.477.24 2.948.001 4.366l3.235 2.165c.21.129.359.33.417.562a.891.891 0 01-.104.682l-3.876 6.398a.961.961 0 01-.565.426 1.006 1.006 0 01-.715-.065l-3.577-1.597a14.57 14.57 0 01-3.95 2.182l-.343 3.766a.908.908 0 01-.3.626.99.99 0 01-.667.255h-7.753a.99.99 0 01-.667-.255.908.908 0 01-.3-.626l-.343-3.766a14.58 14.58 0 01-3.95-2.182l-3.577 1.597c-.22.11-.477.133-.716.066a.96.96 0 01-.566-.425L.13 24.193a.891.891 0 01-.103-.68.928.928 0 01.416-.562l3.235-2.167a13.206 13.206 0 010-4.366L.445 14.251a.927.927 0 01-.415-.56.891.891 0 01.102-.68l3.87-6.424a.96.96 0 01.566-.427c.239-.067.495-.043.716.066l3.577 1.597a14.573 14.573 0 013.95-2.18l.344-3.766a.909.909 0 01.298-.627.99.99 0 01.668-.256h7.755zM18 12.126c1.794 0 3.515.683 4.784 1.898 1.27 1.214 1.982 2.862 1.982 4.58s-.713 3.365-1.982 4.58A6.923 6.923 0 0118 25.081a6.923 6.923 0 01-4.785-1.897c-1.269-1.215-1.982-2.862-1.982-4.58s.713-3.366 1.982-4.58A6.923 6.923 0 0118 12.126zm0 1.851a4.945 4.945 0 00-3.418 1.355 4.529 4.529 0 00-1.416 3.272c0 1.227.51 2.404 1.416 3.271A4.945 4.945 0 0018 23.232a4.945 4.945 0 003.417-1.356 4.529 4.529 0 001.416-3.271c0-1.227-.51-2.404-1.416-3.272A4.945 4.945 0 0018 13.977z" fill="#fff"/></svg>