<svg width="52" height="35" fill="none" xmlns="http://www.w3.org/2000/svg"><path d="M11.143 22.39a6.35 6.35 0 013.916 1.34 5.908 5.908 0 012.15 3.415h17.458V3.372H7.429c-1.314 0-2.574.5-3.502 1.392a4.66 4.66 0 00-1.45 3.362v19.02h2.6a5.908 5.908 0 012.15-3.416 6.35 6.35 0 013.916-1.34zm0 11.888a6.351 6.351 0 01-3.916-1.34 5.908 5.908 0 01-2.15-3.415H0V8.126c0-1.891.783-3.705 2.176-5.043A7.588 7.588 0 017.429.994h27.238c.656 0 1.286.25 1.75.696a2.33 2.33 0 01.726 1.682v4.754h7.428L52 17.591v11.932h-5.076a5.907 5.907 0 01-2.15 3.419 6.35 6.35 0 01-3.917 1.341 6.35 6.35 0 01-3.917-1.341 5.907 5.907 0 01-2.15-3.42H17.21a5.908 5.908 0 01-2.151 3.416 6.351 6.351 0 01-3.916 1.34zm0-9.51a3.8 3.8 0 00-2.627 1.044 3.496 3.496 0 00-1.087 2.522c0 .946.39 1.853 1.087 2.522a3.794 3.794 0 002.627 1.044c.985 0 1.93-.376 2.626-1.044a3.495 3.495 0 001.088-2.522c0-.946-.391-1.853-1.088-2.522a3.795 3.795 0 00-2.626-1.044zm29.714-2.377a6.35 6.35 0 013.916 1.339 5.908 5.908 0 012.15 3.415h2.6v-8.758l-.589-.751h-11.79v5.943a6.336 6.336 0 013.714-1.188zm0 2.377c-.985 0-1.93.376-2.626 1.044a3.496 3.496 0 00-1.088 2.522c0 .946.391 1.853 1.088 2.522a3.794 3.794 0 002.626 1.044 3.8 3.8 0 002.627-1.044 3.495 3.495 0 001.087-2.522c0-.946-.39-1.853-1.087-2.522a3.794 3.794 0 00-2.627-1.044zm-3.714-14.264v4.754h9.927l-3.737-4.754h-6.19z" fill="#fff"/></svg>