<svg width="38" height="34" fill="none" xmlns="http://www.w3.org/2000/svg"><path d="M2.5 14.279h5.25c.464 0 .91.18 1.237.499.329.32.513.753.513 1.205V31.32c0 .452-.184.886-.513 1.205-.328.32-.773.5-1.237.5H2.5c-.464 0-.91-.18-1.237-.5A1.682 1.682 0 01.75 31.32V15.983c0-.452.184-.886.513-1.205.328-.32.773-.5 1.237-.5zm0 1.704V31.32h5.25V15.983H2.5zm27.503 13.675l5.252-8.52a3.314 3.314 0 00.495-1.747v-1.704c0-.904-.369-1.77-1.025-2.41a3.548 3.548 0 00-2.475-.998h-9.817l2.55-9.27.008-.031a1.66 1.66 0 000-.882 1.694 1.694 0 00-.451-.764l-10.516 10.24a3.393 3.393 0 00-.76 1.106A3.32 3.32 0 0013 15.983v11.929c0 .904.369 1.77 1.025 2.41a3.549 3.549 0 002.475.998H27a3.506 3.506 0 003.003-1.662zM37.5 19.392a4.976 4.976 0 01-.822 2.747l-5.086 8.253a5.178 5.178 0 01-1.927 1.926 5.358 5.358 0 01-2.665.707H16.5a5.323 5.323 0 01-3.712-1.497 5.045 5.045 0 01-1.538-3.615v-11.93a5.03 5.03 0 011.535-3.612L24.54.922l1.237 1.205c.442.43.758.97.914 1.56.157.59.147 1.211-.027 1.797l-1.951 7.09h7.537c1.392 0 2.728.54 3.712 1.498a5.045 5.045 0 011.538 3.615v1.704z" fill="#fff"/></svg>