<svg viewBox="0 0 250 250" xmlns="http://www.w3.org/2000/svg"><path d="M201.23 153.18c0-49.19-78.39-137.18-78.39-137.18s-78.39 87.99-78.39 137.18c0 43.29 35.1 78.39 78.39 78.39v-19.6l17.61 17.61c34.81-7.99 60.78-39.16 60.78-76.4zm-78.39 58.79c-15.7 0-30.47-6.12-41.57-17.22s-17.22-25.87-17.22-41.57c0-5.64 1.77-16.02 10.21-33.48 6.02-12.45 14.51-26.6 25.25-42.04 8.26-11.88 16.59-22.71 23.33-31.11 6.74 8.4 15.07 19.23 23.33 31.11 10.74 15.45 19.23 29.59 25.25 42.04 8.44 17.46 10.21 27.84 10.21 33.48 0 15.7-6.12 30.47-17.22 41.57s-25.87 17.22-41.57 17.22z" fill="#fff"/></svg>