<svg fill="none" height="13" width="13" xmlns="http://www.w3.org/2000/svg"><g fill="#fff"><path d="M11.83 9.454A6.094 6.094 0 003.546 1.17L3.1.723a1.084 1.084 0 00-1.532 0l-.845.845a1.084 1.084 0 000 1.532l.447.446a6.094 6.094 0 008.284 8.284l.446.447a1.085 1.085 0 001.532 0l.845-.844a1.084 1.084 0 000-1.533zM1.361 2.461a.181.181 0 010-.255l.845-.845a.18.18 0 01.255 0l.316.316a6.136 6.136 0 00-1.1 1.1zm5.139 8.8a4.76 4.76 0 110-9.522 4.76 4.76 0 010 9.522zm5.139-.467l-.845.845a.181.181 0 01-.255 0l-.316-.316a6.122 6.122 0 001.1-1.1l.316.316a.182.182 0 010 .255z"/><path d="M6.92 8.21c.566 1.19.829 1.586 1.84.769 1.01-.817 1.479-2.792-2.24-4.767-1.01-.537-2.626.48-2.443 1.338.182.857 2.28 1.472 2.844 2.66zm1.845-.985c.69 0-.423.378-1.087.951-.322.278-.167-.951 1.087-.951zm-.92-1.522c.69 0-.423.378-1.087.951-.321.278-.168-.95 1.087-.95zm-1.484-.99c.69 0-.424.377-1.087.95-.322.277-.168-.95 1.087-.95z"/></g></svg>