<svg fill="none" height="16" width="16" xmlns="http://www.w3.org/2000/svg"><path d="M9.578 1.5c-.383.002-.755.15-1.031.453-.004.004.004.012 0 .015-.615.62-.854 1.236-1.063 1.782-.09.236-.18.459-.297.688A1.239 1.239 0 006.25 4 1.259 1.259 0 005 5.25c0 .683.566 1.25 1.25 1.25.371 0 .691-.176.922-.438l.031.032L2.64 10.64l-.14.157v1.984l-.5.516.703.703.516-.5h1.984l.156-.14 8.281-8.298.016-.015a1.484 1.484 0 000-2.094l-.61-.609A1.473 1.473 0 0012 1.906c-.358 0-.705.139-.985.39l-.359-.343A1.529 1.529 0 009.577 1.5zm.016 1a.523.523 0 01.359.157l.344.343-3.063 3.047c.678-.719.977-1.387 1.188-1.937.215-.563.35-.975.828-1.453l.031-.032a.403.403 0 01.313-.125zM12 2.89c.117 0 .233.045.344.157l.609.609c.223.223.223.465 0 .687l-.453.438L11.218 3.5l.392-.39.046-.063A.475.475 0 0112 2.89zm-1.5 1.33l1.282 1.28L8 9.281 6.718 8zM6.25 5c.145 0 .25.105.25.25s-.105.25-.25.25S6 5.395 6 5.25 6.105 5 6.25 5zM6 8.719L7.282 10l-2.5 2.5H3.5v-1.282z" fill="#fff"/></svg>