<svg width="57" height="57" fill="none" xmlns="http://www.w3.org/2000/svg"><path fill-rule="evenodd" clip-rule="evenodd" d="M13.983 6.216a2.266 2.266 0 00-3.388-.21L7.139 9.462c-1.614 1.614-2.209 3.9-1.5 5.906a58.674 58.674 0 0013.92 22.073 58.676 58.676 0 0022.072 13.92c2.006.705 4.293.113 5.907-1.5l3.456-3.456a2.265 2.265 0 00-.214-3.388l-7.702-5.992a2.264 2.264 0 00-1.938-.41l-7.31 1.828a5.828 5.828 0 01-5.537-1.532l-8.2-8.205a5.83 5.83 0 01-1.532-5.536l1.827-7.31a2.265 2.265 0 00-.41-1.938l-5.995-7.706zM8.076 3.491a5.829 5.829 0 018.721.545l5.989 7.702a5.814 5.814 0 011.054 4.988l-1.827 7.313a2.266 2.266 0 00.595 2.152l8.208 8.201a2.266 2.266 0 002.151.595l7.31-1.828a5.827 5.827 0 014.992 1.055l7.702 5.989c2.768 2.151 3.024 6.244.545 8.72L50.06 52.38c-2.469 2.469-6.163 3.556-9.608 2.344A62.236 62.236 0 0117.043 39.96 62.236 62.236 0 012.276 16.551c-1.21-3.445-.124-7.14 2.345-9.612l3.455-3.452v.004z" fill="#000"/></svg>