<svg width="60" height="60" fill="none" xmlns="http://www.w3.org/2000/svg"><path d="M29.757 14.953a7.5 7.5 0 107.5 7.5 7.508 7.508 0 00-7.5-7.5zm0 11.25a3.75 3.75 0 110-7.5 3.75 3.75 0 010 7.5z" fill="#000"/><path d="M44.169 8.028a20.382 20.382 0 00-31.49 25.537l14.17 21.751a3.471 3.471 0 005.816 0l14.17-21.751a20.382 20.382 0 00-2.666-25.537zm-.477 23.49L29.757 52.91 15.821 31.518c-4.265-6.549-3.35-15.312 2.176-20.838a16.632 16.632 0 0123.52 0c5.526 5.526 6.441 14.29 2.175 20.838z" fill="#000"/></svg>