<svg width="60" height="60" viewBox="0 0 60 60" fill="none" xmlns="http://www.w3.org/2000/svg">
<path d="M29.7568 14.9531C28.2735 14.9531 26.8234 15.393 25.5901 16.2171C24.3567 17.0412 23.3954 18.2126 22.8277 19.583C22.2601 20.9534 22.1116 22.4614 22.4009 23.9163C22.6903 25.3712 23.4046 26.7075 24.4535 27.7564C25.5024 28.8053 26.8388 29.5196 28.2937 29.809C29.7485 30.0984 31.2565 29.9499 32.627 29.3822C33.9974 28.8146 35.1687 27.8533 35.9929 26.6199C36.817 25.3865 37.2568 23.9365 37.2568 22.4531C37.2546 20.4647 36.4637 18.5584 35.0576 17.1523C33.6516 15.7463 31.7453 14.9554 29.7568 14.9531ZM29.7568 26.2031C29.0152 26.2031 28.2901 25.9832 27.6734 25.5711C27.0568 25.1591 26.5761 24.5734 26.2923 23.8882C26.0085 23.203 25.9342 22.449 26.0789 21.7215C26.2236 20.9941 26.5807 20.3259 27.1052 19.8015C27.6296 19.277 28.2978 18.9199 29.0252 18.7752C29.7527 18.6305 30.5067 18.7047 31.1919 18.9886C31.8771 19.2724 32.4628 19.7531 32.8749 20.3697C33.2869 20.9864 33.5068 21.7114 33.5068 22.4531C33.5057 23.4473 33.1102 24.4005 32.4072 25.1035C31.7042 25.8065 30.751 26.202 29.7568 26.2031Z" fill="black"/>
<path d="M44.1688 8.02834C40.6054 4.46589 35.8488 2.34965 30.8169 2.08805C25.785 1.82646 20.8345 3.43806 16.921 6.61181C13.0074 9.78555 10.4082 14.2965 9.62499 19.2739C8.84177 24.2514 9.93005 29.3425 12.6798 33.5648L26.8486 55.3163C27.1639 55.8003 27.595 56.198 28.1029 56.4733C28.6107 56.7485 29.1792 56.8927 29.7569 56.8927C30.3346 56.8927 30.9031 56.7485 31.4109 56.4733C31.9188 56.198 32.3499 55.8003 32.6652 55.3163L46.8345 33.5648C49.3859 29.648 50.5135 24.9733 50.0282 20.324C49.5429 15.6748 47.4742 11.3337 44.1688 8.02834ZM43.6924 31.5179L29.757 52.9104L15.8214 31.5179C11.5557 24.9695 12.4706 16.2063 17.9967 10.6799C19.5411 9.13553 21.3745 7.91044 23.3923 7.07462C25.4102 6.23879 27.5729 5.80859 29.757 5.80859C31.941 5.80859 34.1037 6.23879 36.1216 7.07462C38.1394 7.91044 39.9728 9.13553 41.5172 10.6799C47.0433 16.2063 47.9581 24.9695 43.6924 31.5179Z" fill="black"/>
</svg>
