<svg fill="none" height="74" viewBox="0 0 74 74" width="74" xmlns="http://www.w3.org/2000/svg"><circle cx="37" cy="37" fill="#c4c4c4" r="37"/><path d="m49.1563 42.8481-5.6893-3.6979 2.1449-3.9324c.5-.9183.7623-1.9471.7631-2.9927v-6.2251c0-2.3206-.9219-4.5462-2.5628-6.1872-1.6409-1.6409-3.8665-2.5628-6.1872-2.5628-2.3206 0-4.5462.9219-6.1872 2.5628-1.6409 1.641-2.5628 3.8666-2.5628 6.1872v6.2251c.0008 1.0456.2631 2.0744.7631 2.9928l2.145 3.9323-5.6893 3.6979c-.8744.5661-1.5929 1.3423-2.0897 2.2578s-.7561 1.9409-.7541 2.9825v6.6616h28.75v-6.6616c.002-1.0416-.2573-2.067-.7541-2.9825s-1.2153-1.6917-2.0896-2.2578zm.3437 9.4019h-23.75v-4.1616c-.0012-.6249.1544-1.2402.4525-1.7895s.7292-1.0151 1.2538-1.3547l7.6297-4.9593-3.2531-5.9641c-.3-.551-.4574-1.1683-.4579-1.7957v-6.2251c0-1.6576.6585-3.2473 1.8306-4.4194s2.7618-1.8306 4.4194-1.8306 3.2473.6585 4.4194 1.8306 1.8306 2.7618 1.8306 4.4194v6.2251c-.0005.6274-.1579 1.2447-.4579 1.7957l-3.253 5.9641 7.6298 4.9593c.5246.3397.9557.8054 1.2537 1.3547.2981.5493.4536 1.1646.4524 1.7895z" fill="#fff"/></svg>