<svg fill="none" height="12" viewBox="0 0 12 12" width="12" xmlns="http://www.w3.org/2000/svg"><path d="m9.76172 4.875c-.10156 0-.35547-.00391-.76172-.01172v-.75c0-.20312-.07227-.3789-.2168-.52734s-.32226-.22266-.5332-.22266h-7.5c-.210938 0-.388672.07422-.533203.22266-.1445314.14844-.216797.32422-.216797.52734v5.63672c0 .625.21875 1.1562.65625 1.5938.4375.4374.96875.6562 1.59375.6562h4.51172c.61719 0 1.14453-.2188 1.58203-.6562.4375-.4376.65625-.9688.65625-1.5938v-.38672c.16406.00781.32227.01172.47461.01172h.28711c.61718 0 1.14448-.21875 1.58208-.65625.4374-.4375.6562-.96484.6562-1.58203 0-.69531-.2656-1.26953-.7969-1.72266-.4219-.35937-.9023-.53906-1.44138-.53906zm-1.51172 4.875c0 .2734-.06641.5254-.19922.7559-.13281.2304-.31445.4121-.54492.5449s-.47852.1992-.74414.1992h-4.51172c-.41406 0-.76758-.1465-1.06055-.4395-.292966-.2929-.43945-.6464-.43945-1.0605v-5.63672h7.5zm1.51172-1.11328c-.07813 0-.33203-.00391-.76172-.01172v-3h.76172c.42188 0 .77738.14258 1.06638.42773.2891.28516.4336.64258.4336 1.07227s-.1445.78906-.4336 1.07812c-.289.28907-.6445.4336-1.06638.4336zm-3.01172-6.01172c.10156 0 .18945-.03711.26367-.11133s.11133-.16211.11133-.26367v-1.875c0-.101562-.03711-.189453-.11133-.263672-.07422-.0742186-.16211-.111328-.26367-.111328s-.18945.0371094-.26367.111328c-.07422.074219-.11133.16211-.11133.263672v1.875c0 .10156.03711.18945.11133.26367s.16211.11133.26367.11133zm-4.5 0c.10156 0 .18945-.03711.26367-.11133s.11133-.16211.11133-.26367v-1.875c0-.101562-.03711-.189453-.11133-.263672-.07422-.0742186-.16211-.111328-.26367-.111328s-.18945.0371094-.26367.111328c-.07422.074219-.11133.16211-.11133.263672v1.875c0 .10156.03711.18945.11133.26367s.16211.11133.26367.11133zm2.25 0c.10156 0 .18945-.03711.26367-.11133s.11133-.16211.11133-.26367v-1.875c0-.101562-.03711-.189453-.11133-.263672-.07422-.0742186-.16211-.111328-.26367-.111328s-.18945.0371094-.26367.111328c-.07422.074219-.11133.16211-.11133.263672v1.875c0 .10156.03711.18945.11133.26367s.16211.11133.26367.11133z" fill="#fff"/></svg>