<svg enable-background="new 0 0 250 250" viewBox="0 0 250 250" xmlns="http://www.w3.org/2000/svg"><path d="m202.97 56.57-20.74-20.75h-126.45-20.73v20.75 146.99 20.92h20.73 147.19 20.72.02v-147.16z" fill="#fff"/><path d="m181.14 130.47c0-28.59-23.18-51.77-51.77-51.77s-51.77 23.18-51.77 51.77c0 25.84 18.93 47.26 43.68 51.14v-36.17h-13.14v-14.96h13.14v-11.41c0-12.97 7.73-20.14 19.55-20.14 5.66 0 11.59 1.01 11.59 1.01v12.74h-6.53c-6.43 0-8.44 3.99-8.44 8.08v9.71h14.36l-2.3 14.96h-12.06v36.17c24.76-3.88 43.69-25.29 43.69-51.13z" fill="#282828"/></svg>