<svg width="36" height="37" viewBox="0 0 36 37" fill="none" xmlns="http://www.w3.org/2000/svg">
<path d="M33.6361 24.1412L30.1291 21.7538C30.7181 19.6806 30.7147 17.494 30.1194 15.4224L33.638 13.0646L30.8289 8.41187L26.9159 10.1256C25.3343 8.60069 23.354 7.51027 21.1818 6.9683L20.8087 2.87263H15.1905L14.8174 6.9683C12.6456 7.51102 10.666 8.60208 9.08518 10.1275L5.17027 8.41372L2.36313 13.0665L5.88172 15.4243C5.28611 17.4951 5.28211 19.681 5.87012 21.7538L2.36313 24.1412L5.17027 28.7718L9.08518 27.0561C10.6662 28.5809 12.6458 29.6713 14.8174 30.2135L15.1905 34.3092H20.8087L21.1818 30.2135C23.3533 29.6712 25.3329 28.5808 26.914 27.0561L30.8289 28.7718L33.638 24.1431L33.6361 24.1412ZM21.8758 0.994141C22.1247 0.993889 22.3641 1.08552 22.5441 1.24996C22.7242 1.41439 22.831 1.63897 22.8425 1.87694L23.1866 5.64318C24.6157 6.16454 25.949 6.90048 27.1363 7.82334L30.7129 6.22616C30.9338 6.11735 31.19 6.09414 31.4283 6.16134C31.6666 6.22854 31.8687 6.38098 31.9928 6.58705L35.869 13.0091C35.9936 13.2149 36.0305 13.4588 35.9722 13.69C35.9139 13.9213 35.7648 14.1221 35.5558 14.2509L32.3195 16.42C32.5669 17.8969 32.5592 19.3682 32.3214 20.7859L35.5558 22.9512C35.7653 23.08 35.9147 23.2812 35.9731 23.5129C36.0314 23.7446 35.9941 23.9889 35.869 24.1949L31.9928 30.5929C31.8687 30.7989 31.6666 30.9514 31.4283 31.0186C31.19 31.0858 30.9338 31.0626 30.7129 30.9538L27.1363 29.3566C25.9725 30.2634 24.6462 31.0037 23.1866 31.5386L22.8425 35.3048C22.8306 35.5425 22.7235 35.7666 22.5435 35.9306C22.3635 36.0947 22.1244 36.1861 21.8758 36.1858H14.1233C13.8748 36.1861 13.6357 36.0947 13.4557 35.9306C13.2757 35.7666 13.1686 35.5425 13.1567 35.3048L12.8126 31.5386C11.3834 31.0166 10.0501 30.28 8.86285 29.3566L5.28626 30.9538C5.0654 31.0633 4.80892 31.0871 4.57019 31.0202C4.33146 30.9534 4.12885 30.801 4.00449 30.5947L0.130175 24.1931C0.00562878 23.9872 -0.0313198 23.7433 0.0270001 23.5121C0.08532 23.2809 0.234428 23.08 0.443368 22.9512L3.67777 20.784C3.43555 19.338 3.43555 17.8642 3.67777 16.4181L0.445302 14.2509C0.236874 14.1222 0.0881214 13.9217 0.0298247 13.6909C-0.028472 13.46 0.00814822 13.2166 0.132108 13.0109L4.00256 6.58705C4.1266 6.38051 4.32907 6.22772 4.56783 6.16049C4.80659 6.09327 5.06323 6.11679 5.28433 6.22616L8.86092 7.82334C10.0482 6.90048 11.3815 6.16454 12.8106 5.64318L13.1548 1.87694C13.1662 1.63897 13.2731 1.41439 13.4531 1.24996C13.6332 1.08552 13.8726 0.993889 14.1214 0.994141H21.8739H21.8758ZM17.9996 12.1263C19.7942 12.1263 21.5153 12.8087 22.7842 14.0235C24.0532 15.2383 24.7661 16.8859 24.7661 18.6038C24.7661 20.3218 24.0532 21.9694 22.7842 23.1842C21.5153 24.3989 19.7942 25.0814 17.9996 25.0814C16.205 25.0814 14.4839 24.3989 13.2149 23.1842C11.946 21.9694 11.2331 20.3218 11.2331 18.6038C11.2331 16.8859 11.946 15.2383 13.2149 14.0235C14.4839 12.8087 16.205 12.1263 17.9996 12.1263ZM17.9996 13.977C16.7177 13.977 15.4884 14.4645 14.582 15.3322C13.6756 16.1999 13.1664 17.3767 13.1664 18.6038C13.1664 19.831 13.6756 21.0078 14.582 21.8755C15.4884 22.7432 16.7177 23.2307 17.9996 23.2307C19.2814 23.2307 20.5108 22.7432 21.4172 21.8755C22.3236 21.0078 22.8328 19.831 22.8328 18.6038C22.8328 17.3767 22.3236 16.1999 21.4172 15.3322C20.5108 14.4645 19.2814 13.977 17.9996 13.977Z" fill="white"/>
</svg>
