<svg width="52" height="35" viewBox="0 0 52 35" fill="none" xmlns="http://www.w3.org/2000/svg">
<path d="M11.1429 22.3906C12.57 22.3903 13.9533 22.8634 15.0588 23.7299C16.1643 24.5963 16.9241 25.8029 17.2095 27.1453H34.6667V3.37152H7.42857C6.11512 3.37152 4.85546 3.87247 3.92671 4.76416C2.99796 5.65585 2.47619 6.86524 2.47619 8.12629V27.1453H5.07619C5.36161 25.8029 6.12137 24.5963 7.22688 23.7299C8.3324 22.8634 9.71576 22.3903 11.1429 22.3906ZM11.1429 34.2775C9.71576 34.2778 8.3324 33.8046 7.22688 32.9382C6.12137 32.0718 5.36161 30.8652 5.07619 29.5227H0V8.12629C0 6.23472 0.782651 4.42063 2.17578 3.0831C3.56891 1.74556 5.45839 0.994141 7.42857 0.994141H34.6667C35.3234 0.994141 35.9532 1.24461 36.4176 1.69046C36.882 2.13631 37.1429 2.741 37.1429 3.37152V8.12629H44.5714L52 17.5906V29.5227H46.9238C46.6397 30.8663 45.8804 32.0742 44.7748 32.9418C43.6692 33.8095 42.2851 34.2834 40.8571 34.2834C39.4292 34.2834 38.0451 33.8095 36.9395 32.9418C35.8339 32.0742 35.0746 30.8663 34.7905 29.5227H17.2095C16.9241 30.8652 16.1643 32.0718 15.0588 32.9382C13.9533 33.8046 12.57 34.2778 11.1429 34.2775ZM11.1429 24.768C10.1578 24.768 9.21302 25.1437 8.51646 25.8124C7.8199 26.4812 7.42857 27.3883 7.42857 28.334C7.42857 29.2798 7.8199 30.1869 8.51646 30.8556C9.21302 31.5244 10.1578 31.9001 11.1429 31.9001C12.1279 31.9001 13.0727 31.5244 13.7693 30.8556C14.4658 30.1869 14.8571 29.2798 14.8571 28.334C14.8571 27.3883 14.4658 26.4812 13.7693 25.8124C13.0727 25.1437 12.1279 24.768 11.1429 24.768ZM40.8571 22.3906C42.2842 22.3903 43.6676 22.8634 44.7731 23.7299C45.8786 24.5963 46.6384 25.8029 46.9238 27.1453H49.5238V18.3871L48.9345 17.6358H37.1429V23.5793C38.2136 22.8061 39.5174 22.3889 40.8571 22.3906ZM40.8571 24.768C39.8721 24.768 38.9273 25.1437 38.2308 25.8124C37.5342 26.4812 37.1429 27.3883 37.1429 28.334C37.1429 29.2798 37.5342 30.1869 38.2308 30.8556C38.9273 31.5244 39.8721 31.9001 40.8571 31.9001C41.8422 31.9001 42.787 31.5244 43.4835 30.8556C44.1801 30.1869 44.5714 29.2798 44.5714 28.334C44.5714 27.3883 44.1801 26.4812 43.4835 25.8124C42.787 25.1437 41.8422 24.768 40.8571 24.768ZM37.1429 10.5037V15.2584H47.0699L43.3333 10.5037H37.1429Z" fill="white"/>
</svg>
