<svg width="38" height="34" viewBox="0 0 38 34" fill="none" xmlns="http://www.w3.org/2000/svg">
<path d="M2.5 14.2788H7.75C8.21413 14.2788 8.65925 14.4583 8.98744 14.7779C9.31563 15.0975 9.5 15.531 9.5 15.9829V31.32C9.5 31.772 9.31563 32.2055 8.98744 32.525C8.65925 32.8446 8.21413 33.0242 7.75 33.0242H2.5C2.03587 33.0242 1.59075 32.8446 1.26256 32.525C0.934374 32.2055 0.75 31.772 0.75 31.32V15.9829C0.75 15.531 0.934374 15.0975 1.26256 14.7779C1.59075 14.4583 2.03587 14.2788 2.5 14.2788ZM2.5 15.9829V31.32H7.75V15.9829H2.5ZM30.003 29.6585L35.2547 21.1379C35.5697 20.6267 35.75 20.0302 35.75 19.3912V17.6871C35.75 16.7831 35.3812 15.9162 34.7249 15.2771C34.0685 14.6379 33.1783 14.2788 32.25 14.2788H22.4325L24.9823 5.00837L24.991 4.97769C25.0707 4.68885 25.071 4.38467 24.9917 4.09571C24.9124 3.80674 24.7565 3.54318 24.5395 3.33151L14.0238 13.5716C13.6984 13.888 13.4404 14.2639 13.2647 14.6778C13.089 15.0916 12.9991 15.5351 13 15.9829V27.9118C13 28.8157 13.3687 29.6826 14.0251 30.3218C14.6815 30.961 15.5717 31.32 16.5 31.32H27C28.2775 31.32 29.394 30.6554 30.003 29.6585ZM37.5 19.3912C37.5 20.4034 37.199 21.3458 36.6775 22.1382L31.592 30.3913C31.1375 31.1893 30.472 31.8543 29.6645 32.3172C28.8571 32.7802 27.937 33.0243 27 33.0242H16.5C15.1076 33.0242 13.7723 32.4855 12.7877 31.5268C11.8031 30.568 11.25 29.2677 11.25 27.9118V15.9829C11.25 14.5719 11.8362 13.2955 12.7847 12.3702L24.5395 0.921875L25.7767 2.12669C26.2195 2.55783 26.5354 3.09673 26.6914 3.68721C26.8475 4.27768 26.838 4.89811 26.664 5.48382L24.7127 12.5747H32.25C33.6424 12.5747 34.9777 13.1133 35.9623 14.0721C36.9469 15.0308 37.5 16.3312 37.5 17.6871V19.3912Z" fill="white"/>
</svg>
