<svg enable-background="new 0 0 250 250" viewBox="0 0 250 250" xmlns="http://www.w3.org/2000/svg"><path d="m190.56 66.53-17.97-17.97h-109.57-17.97v17.97 127.37 18.13h17.97 127.54 17.96.01v-127.52z" fill="#fff"/><g fill="#282828"><path d="m126.79 93.74c11.9 0 13.31.05 18.02.26 4.35.2 6.71.92 8.28 1.54 2.08.81 3.57 1.78 5.13 3.34s2.53 3.05 3.34 5.13c.61 1.57 1.34 3.93 1.54 8.28.21 4.7.26 6.11.26 18.02s-.05 13.31-.26 18.02c-.2 4.35-.92 6.71-1.54 8.28-.81 2.08-1.78 3.57-3.34 5.13s-3.05 2.53-5.13 3.34c-1.57.61-3.93 1.34-8.28 1.54-4.7.21-6.11.26-18.02.26s-13.32-.05-18.02-.26c-4.35-.2-6.71-.92-8.28-1.54-2.08-.81-3.57-1.78-5.13-3.34s-2.53-3.05-3.34-5.13c-.61-1.57-1.34-3.93-1.54-8.28-.21-4.7-.26-6.11-.26-18.02s.05-13.31.26-18.02c.2-4.35.92-6.71 1.54-8.28.81-2.08 1.78-3.57 3.34-5.13s3.05-2.53 5.13-3.34c1.57-.61 3.93-1.34 8.28-1.54 4.7-.21 6.11-.26 18.02-.26m0-8.03c-12.11 0-13.63.05-18.38.27s-7.99.97-10.82 2.07c-2.93 1.14-5.42 2.66-7.9 5.14s-4 4.97-5.14 7.9c-1.1 2.84-1.86 6.08-2.07 10.82-.22 4.76-.27 6.27-.27 18.38s.05 13.63.27 18.38.97 7.99 2.07 10.82c1.14 2.93 2.66 5.42 5.14 7.9s4.97 4 7.9 5.14c2.84 1.1 6.08 1.86 10.82 2.07 4.76.22 6.27.27 18.38.27s13.63-.05 18.38-.27 7.99-.97 10.82-2.07c2.93-1.14 5.42-2.66 7.9-5.14s4-4.97 5.14-7.9c1.1-2.84 1.86-6.08 2.07-10.82.22-4.76.27-6.27.27-18.38s-.05-13.63-.27-18.38-.97-7.99-2.07-10.82c-1.14-2.93-2.66-5.42-5.14-7.9s-4.97-4-7.9-5.14c-2.84-1.1-6.08-1.86-10.82-2.07-4.76-.22-6.27-.27-18.38-.27z"/><path d="m126.79 107.4c-12.64 0-22.89 10.25-22.89 22.89s10.25 22.89 22.89 22.89 22.89-10.25 22.89-22.89-10.25-22.89-22.89-22.89zm0 37.76c-8.21 0-14.86-6.65-14.86-14.86s6.65-14.86 14.86-14.86 14.86 6.65 14.86 14.86c0 8.2-6.65 14.86-14.86 14.86z"/><circle cx="150.59" cy="106.5" r="5.35"/></g></svg>