<svg fill="none" height="13" viewBox="0 0 13 13" width="13" xmlns="http://www.w3.org/2000/svg"><g fill="#fff"><path d="m11.83 9.45405c.5021-.90352.765-1.92037.7638-2.95405 0-3.36537-2.72842-6.093745-6.0938-6.093745-1.03351-.001281-2.05022.261548-2.95364.763545l-.44667-.446467c-.20328-.202903-.47876-.316861-.76598-.316861s-.5627.113958-.76599.316861l-.84459.844187c-.202916.20332-.316879.47884-.316879.76609s.113963.56276.316879.76608l.44667.44667c-.501997.90342-.764826 1.92013-.763545 2.95364 0 3.36538 2.727965 6.0938 6.093745 6.0938 1.03355.0013 2.05028-.2616 2.95365-.7638l.44667.4467c.20328.2029.47888.3169.76608.3169.2873 0 .5628-.114.7661-.3169l.8442-.8442c.2029-.2033.3169-.4788.3169-.7661 0-.2872-.114-.5628-.3169-.76608zm-10.46865-6.99278c-.03377-.03395-.05272-.07988-.05272-.12777 0-.04788.01895-.09381.05272-.12776l.84459-.84459c.03389-.03381.0798-.05279.12767-.05279.04786 0 .09377.01898.12766.05279l.31586.31606c-.41182.31849-.78143.6881-1.09992 1.09992zm5.13865 8.79953c-2.62904 0-4.76064-2.13134-4.76064-4.7608 0-2.62925 2.1316-4.76064 4.76064-4.76064 2.62905 0 4.7608 2.13139 4.7608 4.76064 0 2.62946-2.13175 4.7608-4.7608 4.7608zm5.1389-.4665-.845.8446c-.0339.0337-.0798.0526-.1276.0526s-.0937-.0189-.1276-.0526l-.3158-.3163c.4118-.3183.7814-.6879 1.0997-1.0997l.3163.3158c.0337.034.0527.0799.0527.1278s-.019.0938-.0527.1278z"/><path d="m6.92064 8.21059c.56489 1.18889.82834 1.58559 1.83929.76822 1.01014-.81677 1.47857-2.79134-2.23945-4.76674-1.01095-.53706-2.626.4804-2.4438 1.33758.18261.8576 2.28008 1.47246 2.84396 2.66094zm1.84478-.98556c.68981 0-.42372.37801-1.08753.95123-.32175.27788-.16697-.95123 1.08753-.95123zm-.92057-1.52161c.69022 0-.42331.3774-1.08712.95103-.32073.27747-.16798-.95103 1.08712-.95103zm-1.48403-.99125c.68961 0-.42412.37801-1.08671.95042-.32216.27788-.16819-.95042 1.08671-.95042z"/></g></svg>