<svg fill="none" height="13" viewBox="0 0 13 13" width="13" xmlns="http://www.w3.org/2000/svg"><path d="m.821289 11.4669 10.518711-10.518063c.164-.164147.3866-.256396.6187-.25645s.4547.092088.6188.256157c.1641.164066.2564.386626.2564.618716.0001.23208-.092.45468-.2561.61883l-2.68159 2.681 2.06209 2.06266-4.53718 4.53715c-.85733.8575-2.01475 1.3476-3.22715 1.3665-1.21239.019-2.38455-.4347-3.268264-1.265zm1.790831-.1406.06417.0298c.62537.2829 1.32005.3758 1.99777.2672.67773-.1086 1.30862-.4139 1.81431-.878l.10792-.1032 3.71171-3.71176-1.64963-1.65025z" fill="#fff"/></svg>