<svg fill="none" height="16" viewBox="0 0 16 16" width="16" xmlns="http://www.w3.org/2000/svg"><path d="m9.578 1.5c-.3825.002-.7555.15-1.031.453-.004.004.004.012 0 .0155-.615.6195-.8535 1.235-1.0625 1.7815-.09.2365-.18.459-.297.6875-.11549-.1362-.25906-.24581-.42088-.32133-.16182-.07551-.33805-.11514-.51662-.11617-.33079.00236-.64737.13481-.88128.36872s-.36636.55049-.36872.88128c0 .6835.5665 1.25 1.25 1.25.371 0 .6915-.176.922-.4375l.031.0315-4.5625 4.5465-.1405.1565v1.984l-.5.516.703.703.516-.5h1.984l.1565-.1405 8.2805-8.297.016-.0155c.2769-.27811.4323-.65457.4323-1.047s-.1554-.76889-.4323-1.047l-.61-.609c-.1368-.13838-.2997-.24829-.4792-.32338-.1796-.0751-.3722-.11388-.5668-.11412-.3575 0-.705.1385-.9845.39l-.359-.3435c-.1413-.1427-.3093-.25616-.4944-.33389-.18516-.07773-.3838-.1182-.5846-.11911zm.016 1c.123.002.2555.0525.359.1565l.344.3435-3.0625 3.047c.6775-.719.9765-1.387 1.1875-1.9375.215-.5625.3495-.975.828-1.453l.0315-.0315c.04002-.0421.08866-.07507.14259-.09664.05394-.02157.11189-.03125.16991-.02836zm2.406.3905c.117 0 .2325.045.344.1565l.609.609c.223.223.223.465 0 .6875l-.453.438-1.2815-1.2815.391-.3905.0465-.0625c.1115-.1115.227-.1565.344-.1565zm-1.5 1.3285 1.2815 1.281-3.7815 3.7815-1.2815-1.2815zm-4.25.781c.145 0 .25.105.25.25s-.105.25-.25.25-.25-.105-.25-.25.105-.25.25-.25zm-.25 3.719 1.2815 1.281-2.5 2.5h-1.2815v-1.2815z" fill="#fff"/></svg>