<svg width="57" height="57" viewBox="0 0 57 57" fill="none" xmlns="http://www.w3.org/2000/svg">
<path fill-rule="evenodd" clip-rule="evenodd" d="M13.9828 6.21621C13.7855 5.96311 13.5366 5.75481 13.2528 5.60511C12.9689 5.45541 12.6565 5.36772 12.3362 5.34785C12.0159 5.32797 11.695 5.37637 11.3948 5.48984C11.0946 5.6033 10.8219 5.77925 10.5948 6.00602L7.13922 9.46164C5.52541 11.0755 4.93047 13.3626 5.63941 15.3683C8.56324 23.6775 13.3204 31.2218 19.5581 37.4415C25.7778 43.6791 33.3221 48.4363 41.6313 51.3602C43.637 52.0656 45.9242 51.4742 47.538 49.8604L50.9936 46.4048C51.2202 46.1774 51.3959 45.9046 51.509 45.6042C51.6222 45.3039 51.6703 44.983 51.6501 44.6626C51.6299 44.3423 51.5418 44.03 51.3918 43.7462C51.2418 43.4625 51.0332 43.2139 50.7798 43.0168L43.0777 37.0247C42.8068 36.8141 42.4916 36.6678 42.1559 36.5969C41.8201 36.5259 41.4727 36.5321 41.1397 36.615L33.8295 38.4426C32.853 38.6871 31.8298 38.6745 30.8596 38.406C29.8894 38.1376 29.0053 37.6224 28.2933 36.9107L20.0925 28.7063C19.3808 27.9943 18.8656 27.1102 18.5971 26.14C18.3287 25.1698 18.3161 24.1467 18.5606 23.1701L20.3882 15.8599C20.4711 15.5269 20.4773 15.1795 20.4063 14.8438C20.3353 14.508 20.1891 14.1928 19.9785 13.9219L13.9828 6.21621ZM8.07616 3.49089C8.66065 2.90678 9.36267 2.45362 10.1356 2.1615C10.9086 1.86938 11.7349 1.74496 12.5596 1.79651C13.3843 1.84805 14.1886 2.07438 14.9192 2.46048C15.6498 2.84657 16.2899 3.38361 16.7972 4.03596L22.7857 11.7381C23.8865 13.1488 24.2748 14.9906 23.8402 16.7256L22.0127 24.0394C21.9176 24.4189 21.9225 24.8166 22.0267 25.1936C22.131 25.5707 22.3311 25.9144 22.6076 26.1911L30.8156 34.392C31.0924 34.6685 31.436 34.8686 31.8131 34.9729C32.1902 35.0772 32.5878 35.082 32.9673 34.987L40.2776 33.1594C41.135 32.9452 42.0299 32.9289 42.8946 33.1116C43.7593 33.2943 44.5711 33.6712 45.2687 34.2139L52.9708 40.2025C55.7388 42.3542 55.9953 46.4475 53.5159 48.9235L50.0602 52.3791C47.5914 54.8479 43.8971 55.9345 40.4522 54.7232C31.64 51.6215 23.6391 46.5758 17.043 39.9602C10.4261 33.3644 5.37915 25.3635 2.27641 16.551C1.06515 13.1061 2.15172 9.41177 4.62053 6.93939L8.07616 3.48733V3.49089Z" fill="black"/>
</svg>
